<!--@Author: Darius Dan-->
<svg height="410pt" viewBox="0 -3 410.18026 410" width="410pt" xmlns="http://www.w3.org/2000/svg"><path d="m320.851562 188.398438c0 88.601562-71.824218 160.429687-160.425781 160.429687-88.601562 0-160.425781-71.828125-160.425781-160.429687 0-88.597657 71.824219-160.425782 160.425781-160.425782 88.601563 0 160.425781 71.828125 160.425781 160.425782zm0 0" fill="#edebdc"/><path d="m87.949219 56.449219 25.785156 5.65625-25.785156 5.660156c-10.765625 2.363281-19.132813 10.839844-21.359375 21.632813l-5.148438 25.003906-5.152344-25c-2.222656-10.796875-10.589843-19.273438-21.355468-21.636719l-25.789063-5.660156 25.789063-5.65625c10.765625-2.363281 19.132812-10.839844 21.355468-21.636719l5.152344-24.996094 5.148438 24.996094c2.226562 10.796875 10.59375 19.273438 21.359375 21.636719zm0 0" fill="#ffce56"/><path d="m61.441406 121.226562c-3.242187 0-6.035156-2.277343-6.6875-5.453124l-5.148437-24.996094c-1.679688-8.140625-8.011719-14.5625-16.132813-16.339844l-25.792968-5.664062c-3.125-.6875-5.359376-3.460938-5.359376-6.667969s2.234376-5.980469 5.359376-6.664063l25.785156-5.660156c8.128906-1.78125 14.460937-8.199219 16.140625-16.347656l5.148437-24.992188c.652344-3.171875 3.445313-5.453125 6.6875-5.453125 3.238282 0 6.03125 2.28125 6.683594 5.453125l5.148438 25c1.679687 8.140625 8.011718 14.558594 16.132812 16.339844h.007812l25.785157 5.65625c3.128906.6875 5.363281 3.460938 5.363281 6.667969s-2.234375 5.980469-5.363281 6.667969l-25.785157 5.65625c-8.128906 1.78125-14.460937 8.203124-16.140624 16.347656l-5.148438 24.992187c-.652344 3.179688-3.445312 5.457031-6.683594 5.457031zm-21.40625-59.121093c9.871094 3.320312 17.730469 10.925781 21.40625 20.621093 3.671875-9.695312 11.53125-17.300781 21.40625-20.621093-9.875-3.316407-17.734375-10.925781-21.40625-20.617188-3.675781 9.691407-11.535156 17.292969-21.40625 20.617188zm0 0" fill="#4c241d"/><path d="m65.382812 358.722656 17.121094 3.757813-17.121094 3.757812c-7.144531 1.566407-12.699218 7.195313-14.175781 14.359375l-3.417969 16.597656-3.417968-16.597656c-1.476563-7.164062-7.03125-12.792968-14.179688-14.359375l-17.121094-3.757812 17.117188-3.757813c7.148438-1.566406 12.703125-7.195312 14.179688-14.359375l3.417968-16.597656 3.417969 16.597656c1.476563 7.164063 7.035156 12.792969 14.179687 14.359375zm0 0" fill="#ffce56"/><path d="m47.785156 404.019531c-3.238281 0-6.03125-2.273437-6.683594-5.445312l-3.421874-16.59375c-.925782-4.527344-4.445313-8.085938-8.953126-9.074219l-17.121093-3.757812c-3.125-.6875-5.359375-3.460938-5.359375-6.667969s2.234375-5.980469 5.359375-6.664063l17.113281-3.761718c4.515625-.984376 8.035156-4.546876 8.960938-9.066407l3.421874-16.597656c.652344-3.175781 3.445313-5.445313 6.683594-5.445313 3.242188 0 6.035156 2.269532 6.6875 5.445313l3.421875 16.59375c.925781 4.523437 4.445313 8.085937 8.953125 9.070313h.007813l17.109375 3.761718c3.128906.683594 5.363281 3.457032 5.363281 6.664063s-2.234375 5.980469-5.363281 6.667969l-17.109375 3.757812c-4.515625.988281-8.035157 4.546875-8.960938 9.066406l-3.421875 16.601563c-.652344 3.171875-3.445312 5.445312-6.6875 5.445312zm-8.71875-41.539062c3.5625 2.09375 6.554688 5.027343 8.71875 8.527343 2.167969-3.5 5.160156-6.433593 8.722656-8.527343-3.5625-2.09375-6.554687-5.027344-8.722656-8.527344-2.164062 3.5-5.15625 6.433594-8.71875 8.527344zm0 0" fill="#4c241d"/><path d="m386.238281 37.871094 17.117188 3.757812-17.117188 3.753906c-7.148437 1.570313-12.703125 7.195313-14.179687 14.363282l-3.417969 16.59375-3.417969-16.59375c-1.476562-7.167969-7.03125-12.792969-14.175781-14.363282l-17.121094-3.753906 17.117188-3.757812c7.148437-1.570313 12.699219-7.195313 14.175781-14.363282l3.417969-16.59375 3.421875 16.59375c1.476562 7.167969 7.03125 12.792969 14.179687 14.363282zm0 0" fill="#ffce56"/><path d="m368.640625 83.167969c-3.238281 0-6.035156-2.273438-6.6875-5.445313l-3.421875-16.59375c-.925781-4.527344-4.445312-8.085937-8.953125-9.074218l-17.117187-3.757813c-3.128907-.6875-5.359376-3.460937-5.359376-6.667969 0-3.207031 2.230469-5.980468 5.359376-6.667968l17.113281-3.757813c4.511719-.988281 8.03125-4.546875 8.957031-9.066406l3.421875-16.601563c.652344-3.171875 3.449219-5.4453122 6.6875-5.4453122s6.03125 2.2734372 6.6875 5.4453122l3.417969 16.59375c.925781 4.527344 4.445312 8.085938 8.953125 9.074219h.007812l17.113281 3.757813c3.125.6875 5.359376 3.460937 5.359376 6.667968 0 3.207032-2.234376 5.980469-5.359376 6.667969l-17.113281 3.757813c-4.515625.988281-8.035156 4.546874-8.960937 9.066406l-3.417969 16.601562c-.65625 3.171875-3.445313 5.445313-6.6875 5.445313zm-8.71875-41.539063c3.558594 2.09375 6.550781 5.023438 8.71875 8.523438 2.167969-3.5 5.160156-6.433594 8.71875-8.523438-3.558594-2.097656-6.554687-5.027344-8.71875-8.527344-2.167969 3.5-5.160156 6.429688-8.71875 8.527344zm0 0" fill="#4c241d"/><path d="m320.5625 210.28125c0 64.96875-52.664062 117.632812-117.628906 117.632812s-117.632813-52.664062-117.632813-117.632812c0-64.964844 52.667969-117.628906 117.632813-117.628906s117.628906 52.664062 117.628906 117.628906zm0 0" fill="#9dc1e4"/><path d="m202.90625 334.753906c-57.625.007813-109.476562-40.328125-121.773438-98.914062-6.832031-32.53125-.578124-65.78125 17.597657-93.613282 18.175781-27.835937 46.101562-46.917968 78.640625-53.746093 32.535156-6.832031 65.789062-.574219 93.613281 17.597656 27.835937 18.171875 46.921875 46.109375 53.75 78.640625 6.832031 32.53125.578125 65.78125-17.601563 93.613281-18.171874 27.835938-46.101562 46.925781-78.640624 53.753907-8.578126 1.800781-17.144532 2.667968-25.585938 2.667968zm.246094-235.3125c-7.632813 0-15.324219.792969-22.980469 2.398438-28.964844 6.078125-53.824219 23.074218-70.011719 47.851562-16.179687 24.78125-21.746094 54.382813-15.667968 83.347656 6.078124 28.96875 23.074218 53.828126 47.855468 70.011719 24.78125 16.179688 54.371094 21.746094 83.34375 15.675781 59.792969-12.550781 98.234375-71.414062 85.679688-131.207031-6.078125-28.960937-23.074219-53.828125-47.851563-70.007812-18.230469-11.910157-39.078125-18.070313-60.367187-18.070313zm0 0" fill="#4c241d"/><g fill="#c1dbdc"><path d="m243.21875 139.21875c0 12.675781-10.277344 22.953125-22.953125 22.953125s-22.953125-10.277344-22.953125-22.953125 10.277344-22.953125 22.953125-22.953125 22.953125 10.277344 22.953125 22.953125zm0 0"/><path d="m266.640625 178.253906c0 4.894532-3.96875 8.867188-8.867187 8.867188-4.898438 0-8.867188-3.972656-8.867188-8.867188 0-4.898437 3.96875-8.871094 8.867188-8.871094 4.898437 0 8.867187 3.972657 8.867187 8.871094zm0 0"/><path d="m172.964844 163.414062c0 6.691407-5.421875 12.113282-12.113282 12.113282-6.691406 0-12.113281-5.421875-12.113281-12.113282 0-6.691406 5.421875-12.113281 12.113281-12.113281 6.691407 0 12.113282 5.421875 12.113282 12.113281zm0 0"/></g><path d="m82.800781 273.242188c-42.21875 0-64.234375-7.085938-67.289062-21.660157-2.75-13.109375 11.027343-26.820312 42.128906-41.914062 3.398437-1.640625 7.472656-.234375 9.121094 3.160156 1.648437 3.394531.234375 7.472656-3.160157 9.121094-30.046874 14.585937-35.253906 24.3125-34.726562 26.832031.632812 3.015625 11.566406 10.808594 53.945312 10.808594h.300782c36.632812-.035156 84.230468-5.808594 134.046875-16.253906 49.804687-10.453126 95.710937-24.304688 129.273437-39.003907 39.046875-17.101562 45.953125-28.6875 45.320313-31.707031-.660157-3.140625-11.996094-11.402344-57.1875-10.792969-3.640625.332031-6.847657-2.996093-6.886719-6.769531-.035156-3.765625 2.992188-6.851562 6.765625-6.886719 44.160156-.550781 67.527344 6.675781 70.667969 21.648438 3.066406 14.609375-14.332032 29.988281-53.207032 47.015625-34.386718 15.066406-81.246093 29.21875-131.945312 39.859375-50.703125 10.636719-99.296875 16.511719-136.835938 16.542969-.113281 0-.21875 0-.332031 0zm0 0" fill="#4c241d"/></svg>
